<svg xmlns="http://www.w3.org/2000/svg" width="1100" height="420" viewBox="0 0 1100 420" font-family="ui-monospace,Menlo,Consolas,monospace">
<rect width="1100" height="420" fill="#181b1f"/>
<text x="70" y="24" fill="#ccccdc" font-size="15">게이트웨이 RPS</text>
<text x="70" y="40" fill="#8e8e9e" font-size="11">2026-08-13T15:15:00Z ~ 2026-08-13T15:24:00Z  step 15s  arm=s2c1</text>
<line x1="70" y1="324.0" x2="1076" y2="324.0" stroke="#2c3235"/>
<text x="62" y="328.0" fill="#8e8e9e" font-size="10" text-anchor="end">0</text>
<line x1="70" y1="268.0" x2="1076" y2="268.0" stroke="#2c3235"/>
<text x="62" y="272.0" fill="#8e8e9e" font-size="10" text-anchor="end">117.4</text>
<line x1="70" y1="212.0" x2="1076" y2="212.0" stroke="#2c3235"/>
<text x="62" y="216.0" fill="#8e8e9e" font-size="10" text-anchor="end">234.8</text>
<line x1="70" y1="156.0" x2="1076" y2="156.0" stroke="#2c3235"/>
<text x="62" y="160.0" fill="#8e8e9e" font-size="10" text-anchor="end">352.1</text>
<line x1="70" y1="100.0" x2="1076" y2="100.0" stroke="#2c3235"/>
<text x="62" y="104.0" fill="#8e8e9e" font-size="10" text-anchor="end">469.5</text>
<line x1="70" y1="44.0" x2="1076" y2="44.0" stroke="#2c3235"/>
<text x="62" y="48.0" fill="#8e8e9e" font-size="10" text-anchor="end">586.9</text>
<line x1="70.0" y1="44" x2="70.0" y2="324" stroke="#2c3235"/>
<text x="70.0" y="340" fill="#8e8e9e" font-size="10" text-anchor="middle">15:15:00Z</text>
<line x1="271.2" y1="44" x2="271.2" y2="324" stroke="#2c3235"/>
<text x="271.2" y="340" fill="#8e8e9e" font-size="10" text-anchor="middle">15:16:48Z</text>
<line x1="472.4" y1="44" x2="472.4" y2="324" stroke="#2c3235"/>
<text x="472.4" y="340" fill="#8e8e9e" font-size="10" text-anchor="middle">15:18:36Z</text>
<line x1="673.6" y1="44" x2="673.6" y2="324" stroke="#2c3235"/>
<text x="673.6" y="340" fill="#8e8e9e" font-size="10" text-anchor="middle">15:20:24Z</text>
<line x1="874.8" y1="44" x2="874.8" y2="324" stroke="#2c3235"/>
<text x="874.8" y="340" fill="#8e8e9e" font-size="10" text-anchor="middle">15:22:12Z</text>
<line x1="1076.0" y1="44" x2="1076.0" y2="324" stroke="#2c3235"/>
<text x="1076.0" y="340" fill="#8e8e9e" font-size="10" text-anchor="middle">15:24:00Z</text>
<path d="M70.0,324.0 L97.9,324.0 L125.9,324.0 L153.8,324.0 L181.8,289.3 L209.7,262.4 L237.7,233.2 L265.6,224.2 L293.6,216.3 L321.5,188.1 L349.4,150.9 L377.4,113.0 L405.3,93.8 L433.3,87.5 L461.2,80.3 L489.2,81.4 L517.1,98.7 L545.1,109.3 L573.0,104.2 L600.9,78.4 L628.9,64.7 L656.8,67.1 L684.8,90.0 L712.7,121.2 L740.7,130.5 L768.6,99.3 L796.6,96.7 L824.5,131.5 L852.4,221.0 L880.4,279.5 L908.3,324.0 L936.3,324.0 L964.2,324.0 L992.2,324.0 L1020.1,324.0 L1048.1,324.0 L1076.0,324.0" fill="none" stroke="#73bf69" stroke-width="1.6"/>
<rect x="70" y="352" width="10" height="3" fill="#73bf69"/>
<text x="86" y="360" fill="#ccccdc" font-size="10">gateway-rps gateway-rps  min 0.06667 / avg 266.9 / max 543.4</text>
</svg>