<svg xmlns="http://www.w3.org/2000/svg" width="1100" height="420" viewBox="0 0 1100 420" font-family="ui-monospace,Menlo,Consolas,monospace">
<rect width="1100" height="420" fill="#181b1f"/>
<text x="70" y="24" fill="#ccccdc" font-size="15">outbox backlog</text>
<text x="70" y="40" fill="#8e8e9e" font-size="11">2026-08-13T15:56:00Z ~ 2026-08-13T16:05:00Z  step 15s  arm=s2c3</text>
<line x1="70" y1="324.0" x2="1076" y2="324.0" stroke="#2c3235"/>
<text x="62" y="328.0" fill="#8e8e9e" font-size="10" text-anchor="end">0</text>
<line x1="70" y1="268.0" x2="1076" y2="268.0" stroke="#2c3235"/>
<text x="62" y="272.0" fill="#8e8e9e" font-size="10" text-anchor="end">226.6</text>
<line x1="70" y1="212.0" x2="1076" y2="212.0" stroke="#2c3235"/>
<text x="62" y="216.0" fill="#8e8e9e" font-size="10" text-anchor="end">453.2</text>
<line x1="70" y1="156.0" x2="1076" y2="156.0" stroke="#2c3235"/>
<text x="62" y="160.0" fill="#8e8e9e" font-size="10" text-anchor="end">679.8</text>
<line x1="70" y1="100.0" x2="1076" y2="100.0" stroke="#2c3235"/>
<text x="62" y="104.0" fill="#8e8e9e" font-size="10" text-anchor="end">906.3</text>
<line x1="70" y1="44.0" x2="1076" y2="44.0" stroke="#2c3235"/>
<text x="62" y="48.0" fill="#8e8e9e" font-size="10" text-anchor="end">1133</text>
<line x1="70.0" y1="44" x2="70.0" y2="324" stroke="#2c3235"/>
<text x="70.0" y="340" fill="#8e8e9e" font-size="10" text-anchor="middle">15:56:00Z</text>
<line x1="271.2" y1="44" x2="271.2" y2="324" stroke="#2c3235"/>
<text x="271.2" y="340" fill="#8e8e9e" font-size="10" text-anchor="middle">15:57:48Z</text>
<line x1="472.4" y1="44" x2="472.4" y2="324" stroke="#2c3235"/>
<text x="472.4" y="340" fill="#8e8e9e" font-size="10" text-anchor="middle">15:59:36Z</text>
<line x1="673.6" y1="44" x2="673.6" y2="324" stroke="#2c3235"/>
<text x="673.6" y="340" fill="#8e8e9e" font-size="10" text-anchor="middle">16:01:24Z</text>
<line x1="874.8" y1="44" x2="874.8" y2="324" stroke="#2c3235"/>
<text x="874.8" y="340" fill="#8e8e9e" font-size="10" text-anchor="middle">16:03:12Z</text>
<line x1="1076.0" y1="44" x2="1076.0" y2="324" stroke="#2c3235"/>
<text x="1076.0" y="340" fill="#8e8e9e" font-size="10" text-anchor="middle">16:05:00Z</text>
<path d="M70.0,324.0 L97.9,324.0 L125.9,324.0 L153.8,324.0 L181.8,324.0 L209.7,260.2 L237.7,198.0 L265.6,256.3 L293.6,324.0 L321.5,324.0 L349.4,324.0 L377.4,324.0 L405.3,324.0 L433.3,124.1 L461.2,214.0 L489.2,305.7 L517.1,324.0 L545.1,111.2 L573.0,157.9 L600.9,324.0 L628.9,324.0 L656.8,324.0 L684.8,86.5 L712.7,255.0 L740.7,324.0 L768.6,324.0 L796.6,293.4 L824.5,324.0 L852.4,324.0 L880.4,64.7 L908.3,287.2 L936.3,324.0 L964.2,324.0 L992.2,324.0 L1020.1,324.0 L1048.1,324.0 L1076.0,324.0" fill="none" stroke="#73bf69" stroke-width="1.6"/>
<rect x="70" y="352" width="10" height="3" fill="#73bf69"/>
<text x="86" y="360" fill="#ccccdc" font-size="10">outbox-backlog booking-service:8090  min 0 / avg 174.7 / max 1049</text>
<path d="M70.0,324.0 L97.9,324.0 L125.9,324.0 L153.8,324.0 L181.8,324.0 L209.7,293.1 L237.7,303.5 L265.6,304.2 L293.6,324.0 L321.5,324.0 L349.4,319.8 L377.4,324.0 L405.3,323.8 L433.3,305.5 L461.2,292.6 L489.2,308.9 L517.1,324.0 L545.1,323.8 L573.0,294.3 L600.9,310.2 L628.9,324.0 L656.8,324.0 L684.8,284.7 L712.7,267.2 L740.7,324.0 L768.6,324.0 L796.6,301.5 L824.5,324.0 L852.4,324.0 L880.4,283.2 L908.3,242.9 L936.3,324.0 L964.2,324.0 L992.2,324.0 L1020.1,323.8 L1048.1,324.0 L1076.0,324.0" fill="none" stroke="#f2cc0c" stroke-width="1.6"/>
<rect x="70" y="366" width="10" height="3" fill="#f2cc0c"/>
<text x="86" y="374" fill="#ccccdc" font-size="10">outbox-backlog seat-service:8090  min 0 / avg 46.49 / max 328</text>
</svg>